<svg width="85" height="36" viewBox="0 0 85 36" fill="none" xmlns="http://www.w3.org/2000/svg">
<path d="M25.917 6.43042C21.5317 6.3421 18.6211 9.22822 18.6211 13.7013C18.6211 18.0889 20.8909 21.1801 24.3237 21.1801C25.3651 21.1801 26.5608 20.9152 27.4212 20.2969L27.6052 20.1658C27.8514 21.8326 26.1543 23.0406 24.6026 23.0406C23.2081 23.0406 21.9204 22.5762 20.79 21.8383L19.2827 24.5762C21.1401 25.8669 23.2081 26.3113 24.8755 26.3113C27.4212 26.3113 31.3466 25.223 31.3466 19.3624V7.72675C29.6287 6.93186 27.7891 6.43042 25.917 6.43042ZM22.6681 13.7041C22.6681 11.3793 23.8341 9.81798 25.4897 9.81798C26.1039 9.81798 26.7477 9.9063 27.3916 10.1114V16.9122C26.6261 17.5304 25.8279 17.6473 25.2761 17.6473C23.6798 17.6501 22.6681 16.2655 22.6681 13.7041Z" fill="white"/>
<path d="M12.9065 17.5276H5.83906L4.54842 20.9522H0V20.3625L8.29871 0.0883884H10.4824L18.7485 20.3596V20.9494H14.2298L12.9065 17.5276ZM8.14443 11.1998L7.18905 14.0574H11.5268L10.5418 11.1685L9.37573 7.46466L8.14443 11.1998Z" fill="white"/>
<path d="M41.7664 6.43036C42.7188 6.40187 43.8552 6.81499 44.6236 7.49307L43.4546 10.6812C42.9324 10.2966 42.072 10.0316 41.2739 10.0316C39.737 10.0316 38.4167 11.0943 38.4167 13.4562V20.9521H34.4527V10.9775C34.4527 9.79798 34.1145 9.02872 33.0078 9.23671V6.69817C34.791 6.22522 38.0784 6.16824 38.2921 8.70393C38.9389 7.2281 40.2621 6.43036 41.7664 6.43036Z" fill="white"/>
<path d="M47.9232 0C49.0893 0 50.2582 0.826234 50.2582 2.36189C50.2582 3.92604 49.1219 4.72378 47.9529 4.75227C46.7542 4.78076 45.5259 3.98587 45.5259 2.36189C45.5259 0.737913 46.7245 0 47.9232 0ZM49.92 6.72669V20.9493H45.8641V6.72669H49.92Z" fill="white"/>
<path d="M64.3542 16.1999V7.7296C62.6334 6.93185 60.7879 6.43041 58.9157 6.43041C54.5216 6.34209 51.6021 9.23391 51.6021 13.7184C51.6021 18.1145 53.8777 21.2143 57.3195 21.2143C60.5268 21.2143 61.2656 19.2826 61.2656 19.2826V19.257C61.7789 21.4394 64.0041 21.4052 65.6775 20.9493L65.7072 18.2655C64.5085 18.502 64.3542 17.5874 64.3542 16.1999ZM60.3903 16.9378C59.6219 17.5561 58.8237 17.6757 58.2689 17.6757C56.6697 17.6757 55.6579 16.2882 55.6579 13.7212C55.6579 11.3907 56.824 9.82652 58.4855 9.82652C59.0997 9.82652 59.7435 9.91484 60.3903 10.1228V16.9378Z" fill="white"/>
<path d="M74.5908 6.72389V10.6813H79.9848V20.9494H84.106V6.72389H74.5908Z" fill="white"/>
<path d="M69.2915 6.72391V20.9494H78.8067V16.9949H73.4127V6.72391H69.2915Z" fill="white"/>
<path d="M78.8099 11.8123H74.5908V15.8637H78.8099V11.8123Z" fill="white"/>
<path d="M34.5509 27.0663C37.7523 27.0663 37.0135 33.3286 33.3195 33.3286H31.3228L32.7143 27.0663H34.5509ZM33.459 32.3798C35.708 32.3798 36.3904 28.0065 34.4025 28.0065H33.4798L32.5659 32.3798H33.459Z" fill="white"/>
<path d="M36.687 34.3428C36.9867 34.5765 37.405 34.7474 37.8264 34.7474C38.4969 34.7474 39.0102 34.4055 39.2446 33.4026L39.384 32.8015C39.028 33.3115 38.7016 33.4112 38.218 33.4112C37.1825 33.4112 36.9303 32.5052 37.2181 31.1348L37.405 30.2487C37.4881 29.827 37.3961 29.6931 37.0223 29.7387L37.1914 29.0208C37.9836 28.8327 38.6186 29.0464 38.396 30.0065L38.1349 31.2601C37.9569 32.112 37.9955 32.5964 38.6007 32.5964C39.3277 32.5964 39.6184 31.5393 39.7668 30.8413L40.1584 29.0122H41.0901L40.1288 33.4026C39.7935 34.907 38.9331 35.5708 37.8323 35.5708C37.3457 35.5708 36.8621 35.4084 36.4526 35.1035L36.687 34.3428Z" fill="white"/>
<path d="M44.1491 28.921C44.4577 28.921 44.7455 29.0293 44.9235 29.2515L44.4666 30.0663C44.2886 29.8954 44.075 29.8071 43.8317 29.8071C43.3658 29.8071 42.8793 30.1661 42.722 30.8812L42.182 33.3285H41.2593L41.9298 30.2829C42.0218 29.8612 42.0515 29.7017 41.6865 29.7273L41.8349 29.0635C42.3867 28.921 43.0751 28.9922 42.9623 29.6105C43.2086 29.1375 43.7011 28.921 44.1491 28.921Z" fill="white"/>
<path d="M48.4599 30.4082C48.095 31.753 46.6026 31.9126 45.6531 31.4197C45.5226 32.2174 45.9617 32.6305 46.6412 32.6305C47.0595 32.6305 47.5283 32.5137 47.9288 32.3086L47.7686 33.0778C47.3117 33.32 46.8726 33.4083 46.4157 33.4083C44.95 33.4083 44.4841 32.3143 44.858 30.9182C45.1577 29.8156 45.9854 28.921 47.1455 28.921C47.9466 28.921 48.721 29.4424 48.4599 30.4082ZM46.9764 29.6931C46.5759 29.6931 46.1753 29.9524 45.8371 30.7872C46.472 31.1718 47.4333 30.9923 47.5817 30.3484C47.7033 29.8356 47.2939 29.6931 46.9764 29.6931Z" fill="white"/>
<path d="M49.1781 29.0123H50.0563L50.1779 28.4481C50.5429 26.7358 51.792 26.4595 52.7711 26.9068L52.4922 27.5877C51.97 27.2743 51.2787 27.3911 51.074 28.4652L50.9701 29.0123H52.1362L51.9581 29.7473H50.7832L49.8872 33.7788C49.6172 35.0153 49.0772 35.5623 48.19 35.5708C48.0209 35.5708 47.834 35.5537 47.6382 35.5167L47.8162 34.7816C47.92 34.7987 48.0209 34.7987 48.104 34.7987C48.6648 34.7902 48.8309 34.4398 48.9822 33.7674L49.8694 29.7445H49.003L49.1781 29.0123Z" fill="white"/>
<path d="M54.3823 28.921C56.919 28.921 56.0705 33.4197 53.4862 33.4197C50.9494 33.4197 51.7624 28.921 54.3823 28.921ZM54.2428 29.7729C52.9077 29.7729 52.338 32.5764 53.599 32.5764C54.9638 32.5764 55.5216 29.7729 54.2428 29.7729Z" fill="white"/>
<path d="M59.1594 28.921C59.468 28.921 59.7558 29.0293 59.9338 29.2515L59.4769 30.0663C59.2988 29.8954 59.0852 29.8071 58.8419 29.8071C58.3761 29.8071 57.8895 30.1661 57.7323 30.8812L57.1923 33.3285H56.2695L56.9401 30.2829C57.032 29.8612 57.0617 29.7017 56.6968 29.7273L56.8451 29.0635C57.397 28.921 58.0853 28.9922 57.9726 29.6105C58.2189 29.1375 58.7114 28.921 59.1594 28.921Z" fill="white"/>
<path d="M60.5979 32.0579C60.5237 32.5052 60.859 32.6932 61.2032 32.6932C61.5474 32.6932 61.9123 32.5764 62.034 32.0493C62.1081 31.6447 61.8292 31.5308 61.494 31.4766C60.5238 31.3057 60.0579 30.8954 60.141 30.2572C60.2627 29.3085 61.0726 28.921 61.9598 28.921C62.7994 28.921 63.4611 29.3598 63.2386 30.2202H62.3692C62.4523 29.79 62.1467 29.6561 61.8085 29.6561C61.4346 29.6561 61.0341 29.9068 61.0341 30.3456C61.0341 30.6219 61.2863 30.7131 61.6215 30.7672C62.7787 30.9553 63.0961 31.4111 62.9359 32.1547C62.7401 33.0778 61.9182 33.4169 61.0875 33.4169C60.2834 33.4169 59.4734 33.1206 59.6693 32.055H60.5979V32.0579Z" fill="white"/>
<path d="M64.4226 29.0122H65.3661L64.4137 33.3315H63.4702L64.4226 29.0122ZM65.1021 28.2145C64.3633 28.2145 64.476 27.0578 65.3246 27.0578C66.0812 27.0578 65.8765 28.2145 65.1021 28.2145Z" fill="white"/>
<path d="M67.2945 30.696C68.152 30.696 68.5644 30.0322 68.7781 29.0037H69.6652C69.4783 29.9353 69.1252 30.716 68.3033 31.1177L68.9086 33.2317L68.8819 33.3314H67.9503L67.4459 31.4311C67.3331 31.4681 67.2026 31.4767 67.0809 31.4767H66.7931L66.3926 33.3314H65.4609L66.9059 26.7814H67.8405L66.9919 30.696H67.2945Z" fill="white"/>
<path d="M72.5671 28.921C72.8757 28.921 73.1635 29.0293 73.3415 29.2515L72.8846 30.0663C72.7066 29.8954 72.4929 29.8071 72.2496 29.8071C71.7838 29.8071 71.2972 30.1661 71.14 30.8812L70.6 33.3285H69.6772L70.3478 30.2829C70.4398 29.8612 70.4694 29.7017 70.1045 29.7273L70.2528 29.0635C70.8047 28.921 71.4931 28.9922 71.3833 29.6105C71.6236 29.1375 72.1191 28.921 72.5671 28.921Z" fill="white"/>
<path d="M73.9851 29.0122H74.9286L73.9762 33.3315H73.0327L73.9851 29.0122ZM74.6646 28.2145C73.9258 28.2145 74.0385 27.0578 74.8871 27.0578C75.6437 27.0578 75.439 28.2145 74.6646 28.2145Z" fill="white"/>
<path d="M75.6346 28.9922C76.231 28.8498 76.9223 28.9125 76.8481 29.6817C77.2309 29.1176 77.7145 28.921 78.2011 28.921C79.201 28.921 79.4235 29.7359 79.201 30.8128L78.8924 32.3C78.8271 32.622 78.9488 32.7217 79.3226 32.6419L79.1742 33.3143C78.4266 33.4852 77.7175 33.3399 77.9607 32.1946L78.2693 30.7957C78.4473 29.9894 78.1566 29.7131 77.7293 29.7131C77.2902 29.7131 76.8244 30.1176 76.676 30.8242L76.1242 33.3342H75.1807L75.8423 30.3313C75.964 29.7586 75.9076 29.6133 75.4685 29.696L75.6346 28.9922Z" fill="white"/>
<path d="M79.7115 34.2801C80.0468 34.5394 80.4948 34.7274 80.9339 34.7274C81.5214 34.7274 82.0436 34.3884 82.2394 33.3827L82.3521 32.773C82.0436 33.2744 81.5956 33.3998 81.103 33.3998C80.3286 33.3998 79.6462 32.6932 80.0112 31.1604C80.3672 29.6646 81.4027 28.921 82.5213 28.921C83.0257 28.921 83.5567 29.072 83.987 29.3256L83.0998 33.3855C82.7557 34.9098 81.9338 35.5708 80.8123 35.5708C80.3287 35.5708 79.8421 35.4084 79.4326 35.095L79.7115 34.2801ZM82.9307 29.9239C82.7438 29.79 82.5302 29.7359 82.3047 29.7359C81.0081 29.7359 80.2604 32.5764 81.4917 32.5764C82.0525 32.5764 82.5183 31.8043 82.6577 31.1604L82.9307 29.9239Z" fill="white"/>
</svg>
