<svg width="172" height="43" viewBox="0 0 172 43" fill="none" xmlns="http://www.w3.org/2000/svg">
<path d="M0 30.2593H4.18072C8.54941 30.2593 11.0351 32.5612 11.0351 36.1315C11.0351 39.8292 8.19139 42.2037 3.93501 42.2037H0V30.2593ZM3.99254 40.1913C7.0619 40.1913 8.28593 38.3065 8.28593 36.2041C8.28593 33.7935 6.79842 32.2707 3.9341 32.2707H2.57702V40.1937L3.99254 40.1913Z" fill="white"/>
<path d="M14.5873 30.2593H16.7023L22.0701 42.2037H19.1766L17.9196 39.2988H13.4498L12.2319 42.2037H9.4585L14.5873 30.2593ZM17.0821 37.3143L16.3239 35.3119C16.0046 34.4457 15.8251 33.9403 15.7249 33.5435H15.6852C15.5002 34.1489 15.2806 34.7451 15.0272 35.3299L14.2288 37.3143H17.0821Z" fill="white"/>
<path d="M23.6474 30.2597H26.1178L31.0217 36.5493C31.4725 37.1289 31.8688 37.6545 32.2118 38.1801H32.2476C32.23 37.5639 32.2118 36.7668 32.2118 36.2042V30.2593H34.6821V42.2037H32.4285L27.3254 35.6606L26.0994 34.0114H26.0631C26.1111 34.6022 26.1294 35.1951 26.1173 35.7876V42.2033H23.647L23.6474 30.2597Z" fill="white"/>
<path d="M36.5625 39.3224C37.4864 39.8697 38.5851 40.1713 39.7152 40.188C40.7878 40.188 41.8597 39.8697 41.8597 38.9865C41.8597 36.8843 35.9322 37.1495 35.9322 33.581C35.9322 31.8322 37.5927 30.2603 40.5777 30.2603C41.7881 30.243 42.9874 30.4544 44.0876 30.8788V33.0517C43.0315 32.5788 41.8581 32.3188 40.6619 32.2923C39.7789 32.2923 39.0014 32.5556 39.0014 33.3695C39.0014 35.3479 44.9289 35.0653 44.9289 38.7749C44.9289 40.8947 42.7222 42.202 39.8206 42.202C38.2758 42.2322 36.7569 41.8623 35.4702 41.1424L36.5625 39.3224Z" fill="white"/>
<path d="M46.5054 30.2611H48.9594V35.207H49.0131L52.9004 30.2593H55.7132L51.0379 36.0059L55.9641 42.2037H53.0077L49.0131 37.0385H48.9594V42.2037H46.5054V30.2611Z" fill="white"/>
<path d="M61.4814 30.2611H63.9353V35.207H63.989L67.8767 30.2593H70.6886L66.0136 36.0059L70.9401 42.2037H67.9846L63.9896 37.0385H63.936V42.2037H61.4814V30.2611Z" fill="white"/>
<path d="M72.5166 30.2593H79.6106L78.9589 32.2709H75.0672V35.1165H78.9589V37.1096H75.0672V40.1921H79.5911V42.2037H72.5173L72.5166 30.2593Z" fill="white"/>
<path d="M81.9751 30.2597H84.4458L89.3494 36.5493C89.8003 37.1289 90.1973 37.6545 90.5395 38.1801H90.576C90.5577 37.5639 90.5395 36.7668 90.5395 36.2042V30.2593H93.0102V42.2037H90.7569L85.6535 35.6606L84.4276 34.0114H84.3911C84.4384 34.6022 84.4573 35.1951 84.4451 35.7876V42.2033H81.9751V30.2597Z" fill="white"/>
<path d="M95.375 30.2597H98.0216L103.277 36.5493C103.759 37.1289 104.185 37.6545 104.552 38.1801H104.59C104.571 37.5639 104.552 36.7668 104.552 36.2042V30.2593H107.198V42.2037H104.783L99.3156 35.6606L98.0028 34.0118H97.9645C98.0223 34.4469 98.0223 35.19 98.0223 35.7881V42.2037H95.3757L95.375 30.2597Z" fill="white"/>
<path d="M109.563 30.2593H116.657L116.005 32.2709H112.114V35.1165H116.006V37.1096H112.114V40.1921H116.64V42.2037H109.563V30.2593Z" fill="white"/>
<path d="M118.233 30.2593H121.176V40.1921H126.116V42.2037H118.233V30.2593Z" fill="white"/>
<path d="M131.633 30.2612H134.292V35.5369H134.351L138.561 30.2593H141.608L136.543 36.389L141.88 43H138.678L134.351 37.4904H134.292V43H131.633V30.2612Z" fill="white"/>
<path d="M142.668 30.2593H145.022V40.8543H148.974V43H142.668V30.2593Z" fill="white"/>
<path d="M150.37 40.658C149.943 39.8521 149.735 38.9633 149.766 38.068V30.2597H152.621V37.9152C152.608 38.4882 152.743 39.0558 153.017 39.5715C153.496 40.3902 154.416 40.8284 155.684 40.8284C156.935 40.8284 157.852 40.3902 158.332 39.5715C158.618 39.0528 158.754 38.476 158.728 37.8958V30.2593H161.583V38.0676C161.614 38.9628 161.407 39.8515 160.979 40.6575C160.082 42.2571 158.206 43 155.664 43C153.122 43 151.265 42.2589 150.37 40.658Z" fill="white"/>
<path d="M163.162 30.2593H166.716C169.172 30.2593 170.271 31.8642 170.271 33.4879C170.281 34.014 170.161 34.5328 169.925 34.9866C169.688 35.4405 169.345 35.8117 168.932 36.0589V36.0979C169.544 36.2601 170.088 36.6541 170.472 37.2138C170.857 37.7735 171.058 38.4649 171.044 39.1723C171.044 41.1054 169.705 43 167.026 43H163.162V30.2593ZM166.405 35.4599C167.436 35.4599 167.968 34.8027 167.968 33.9707C167.968 33.1007 167.453 32.4243 166.354 32.4243H165.513V35.4594L166.405 35.4599ZM166.715 40.834C168.02 40.834 168.671 40.3314 168.671 39.1713C168.671 38.1856 168.02 37.625 166.937 37.625H165.512V40.834H166.715Z" fill="white"/>
<path d="M99.0601 0.0764052L98.7315 3.41691L98.95 3.86646L105.276 6.98307C105.639 7.20873 105.677 7.65828 105.569 8.07229C104.987 8.63559 105.314 9.61281 104.953 10.3236C104.442 11.9761 103.495 13.4793 102.26 14.8315C100.877 13.6303 99.7156 11.8641 97.9332 11.9014C97.3138 12.502 97.3138 13.442 97.2054 14.3055C96.9146 18.5487 101.169 20.8763 103.75 23.467L101.532 25.6845C100.079 25.3079 98.7693 24.3306 97.4239 23.5435L95.3524 22.1539C94.0793 23.8811 92.6616 25.5727 91.0616 27.0741H87.3901L89.6783 22.2676L89.57 22.1539C88.1162 22.193 86.6624 22.0776 85.2808 22.2676C85.5354 23.9184 86.0085 25.4962 86.5901 27.035L83.5001 27.0723C82.1168 25.7574 81.1 24.1423 80.0454 22.6035C78.1185 23.5044 76.2638 25.2688 74.7721 26.9213L72.5166 25.4216C73.0259 24.3306 73.7553 23.2077 74.3351 22.0776C75.1352 20.3522 76.1176 18.737 76.3343 16.7469C76.4427 15.4321 76.3705 14.0444 76.2259 12.804C74.9906 11.3026 73.3906 9.46183 73.9721 7.4344C74.299 7.0577 74.6999 6.86935 75.1713 6.75741C75.9008 6.79472 76.4083 7.65828 76.7335 8.22152C77.389 9.12245 77.7159 10.4018 78.8445 10.8104L89.133 11.0361C90.0775 10.9632 90.9136 10.1353 91.3145 9.27168L94.3322 0L95.7155 3.15393L99.0601 0.0764052Z" fill="white"/>
</svg>
