<svg width="15" height="13" viewBox="0 0 15 13" fill="none" xmlns="http://www.w3.org/2000/svg">
<path fill-rule="evenodd" clip-rule="evenodd" d="M8.54446 0.10301C7.88829 0.476468 7.36049 1.81771 7.415 2.97312C7.46964 4.13137 7.92189 4.69702 9.07188 5.04534C9.58882 5.2019 9.9347 5.1014 10.2898 4.69127C11.0331 3.83284 10.9083 1.71458 10.0496 0.617006C9.62254 0.0711359 8.98376 -0.147057 8.54446 0.10301ZM4.76675 0.233614C4.23399 0.429305 3.80801 1.08263 3.4718 2.21994C3.35581 2.61231 3.32968 2.83936 3.32968 3.45589C3.32968 4.14484 3.34436 4.24569 3.49687 4.60433C3.7479 5.19465 3.92438 5.30979 4.57831 5.3097C5.03034 5.3097 5.16452 5.28197 5.44317 5.13111C6.31367 4.65975 6.67652 3.83552 6.61501 2.46935C6.54068 0.819651 5.75592 -0.129686 4.76675 0.233614ZM1.37104 4.07328C1.04123 4.20898 0.865595 4.37513 0.612369 4.79074C0.174051 5.51032 -0.0554554 6.71599 0.0861736 7.55503C0.313538 8.90219 0.994013 9.30023 2.1751 8.77681C2.64415 8.5689 3.05787 8.18577 3.22956 7.80026C3.42314 7.3656 3.47133 6.46839 3.33651 5.80694C3.04077 4.35543 2.29156 3.69464 1.37104 4.07328ZM11.8916 4.14078C11.4988 4.26232 11.1332 4.71926 10.7914 5.51623C10.5798 6.00933 10.5303 6.20061 10.5074 6.61143C10.4832 7.04812 10.5 7.16132 10.6451 7.53465C10.9918 8.42685 11.9553 9.06286 12.8155 8.96745C13.3675 8.90621 13.7919 8.31378 13.9795 7.34245C14.2422 5.98203 13.6793 4.44592 12.8086 4.1473C12.4356 4.01938 12.2873 4.0183 11.8916 4.14078ZM6.51255 5.69189C5.93007 5.86801 5.50553 6.16325 4.98617 6.75357C4.52286 7.28013 3.74183 8.59391 3.35458 9.49821C2.94591 10.4525 2.84239 11.5002 3.105 12.0244C3.25017 12.3142 3.70819 12.6645 4.125 12.8046C4.67796 12.9905 5.14645 12.9521 5.80042 12.6677C6.92021 12.1807 7.09118 12.1815 8.38355 12.6794C9.14294 12.9719 9.26593 13 9.78545 13C10.3156 13 10.3753 12.9856 10.6476 12.7919C11.2331 12.3755 11.4696 11.3749 11.244 10.2682C11.0574 9.35236 9.83713 7.2321 9.04604 6.44904C8.65226 6.05921 8.01131 5.71145 7.52144 5.62183C7.03259 5.53239 7.0423 5.53178 6.51255 5.69189Z" fill="white"/>
</svg>
