<svg width="118" height="45" viewBox="0 0 118 45" fill="none" xmlns="http://www.w3.org/2000/svg">
<g clip-path="url(#clip0_167_196)">
<path d="M51.4615 40.191H48.3135C48.2086 40.191 48.1561 40.0836 48.1561 40.0299V30.3045C48.2086 30.1433 48.2086 29.9284 48.1561 29.7672C47.9987 28.8537 47.1592 28.2627 46.2673 28.3702C45.3754 28.5313 44.7982 29.391 44.9032 30.3045V42.4478C44.9032 42.9313 45.2704 43.3612 45.7951 43.4149H51.4615C51.5139 43.4149 51.5664 43.4149 51.6189 43.4149C52.4583 43.3612 53.0879 42.609 53.0355 41.7493C53.0355 40.7284 52.3534 40.1373 51.4615 40.191ZM40.0763 29.1761L31.6817 40.7821C31.4718 41.0507 31.3669 41.3731 31.3669 41.7493C31.3669 42.2328 31.5767 42.7701 32.0489 43.0388C32.7834 43.5224 33.6754 43.3612 34.2 42.7164L35.8265 40.4597H39.7615V41.7493C39.8139 42.6627 40.5485 43.3612 41.3879 43.3075C42.2799 43.3075 42.9095 42.5552 42.9095 41.7493V30.2507C42.9095 29.7672 42.6996 29.2836 42.3848 29.0149C41.7027 28.3702 40.6534 28.4239 40.0763 29.1761ZM39.709 37.1821H38.2399C38.1875 37.1821 38.135 37.1284 38.135 37.0746L39.709 34.8716C39.709 34.8179 39.709 37.1821 39.709 37.1821ZM35.4592 30.3045C35.4592 29.4448 34.7772 28.7463 33.9902 28.7463C33.5704 28.7463 33.1507 28.9075 32.8884 29.1761L29.3207 32.991C29.2682 33.0448 29.2157 33.0448 29.1633 33.0448C29.1108 33.0448 29.0583 33.0448 29.0583 32.991L25.4906 29.1761C25.2283 28.9075 24.8086 28.6925 24.3888 28.6925C23.5494 28.6925 22.9198 29.391 22.9198 30.197C22.9198 30.5731 23.0772 31.003 23.287 31.2716L27.6417 36.3761L27.6942 41.7493C27.6942 42.609 28.3763 43.3075 29.2157 43.3075C30.0552 43.3075 30.7373 42.609 30.7373 41.7493L30.8422 36.4299L35.092 31.3254C35.3543 31.003 35.4592 30.6269 35.4592 30.3045ZM17.0435 28.6925C13.1086 28.6925 9.90811 31.9702 9.90811 36C9.90811 40.0299 13.1086 43.3075 17.0435 43.3075C20.9785 43.3075 24.179 39.9761 24.179 35.9463C24.179 32.0239 20.9785 28.7463 17.0435 28.6925ZM17.0435 39.8687C14.8924 39.8687 13.2135 38.1493 13.2135 35.9463C13.2135 33.7433 14.8924 32.0239 17.0435 32.0239C19.1947 32.0239 20.8736 33.7433 20.8736 35.9463C20.8736 38.1493 19.1947 39.8687 17.0435 39.8687ZM92.3328 28.3702C91.5458 28.4239 90.9162 29.0687 90.9162 29.8209V36.6448C90.9162 36.6985 90.8637 36.7522 90.8112 36.7522C90.7588 36.7522 90.7588 36.7522 90.7588 36.6985L86.8763 29.6597C86.2991 28.5851 84.935 28.2627 83.9381 28.9075C83.361 29.2836 82.9413 29.9821 82.8888 30.6806V41.8567C82.9413 42.7702 83.7283 43.4149 84.5153 43.3612C85.3023 43.3075 85.9319 42.6627 85.9843 41.8567V35.0328C85.9843 34.9791 86.0368 34.9254 86.0893 34.9254C86.1417 34.9254 86.1417 34.9254 86.1417 34.9791L90.1292 42.1791C90.6538 43.2 91.913 43.5224 92.9099 42.9851C93.592 42.609 93.9592 41.9104 93.9592 41.2119V29.8746C93.9068 29.0149 93.2247 28.3164 92.3328 28.3702ZM7.38972 37.3433C8.64892 36.5373 9.48838 35.1403 9.43591 33.6358C9.43591 33.6358 9.43591 33.6358 9.43591 33.5821C9.48838 30.9493 7.38972 28.7463 4.81887 28.6925C3.55968 28.5851 2.24802 29.0149 1.35609 29.9284C0.359232 30.9493 0.0444336 32.2388 0.0444336 33.6358L0.254299 41.7493C0.254299 42.609 0.936362 43.3075 1.77582 43.3075C2.61529 43.3075 3.29735 42.609 3.29735 41.7493L3.34981 37.8806C3.34981 37.7731 3.40228 37.7194 3.50721 37.7194C3.50721 37.7194 3.55968 37.7194 3.61215 37.7194L7.33726 42.9313C7.59959 43.2 7.91439 43.3075 8.33412 43.3075C9.17358 43.3075 9.80318 42.609 9.85564 41.803C9.85564 41.5881 9.80318 41.3731 9.69824 41.1045L7.38972 37.3433ZM4.71394 35.0866C4.60901 35.0866 4.55654 35.0866 4.45161 35.0866C3.55968 35.0328 2.98255 34.2269 3.03502 33.4209C3.08748 32.5075 3.87448 31.9164 4.66147 31.9702C4.76641 31.9702 4.81887 31.9702 4.92381 31.9702C5.81573 32.0239 6.39286 32.8299 6.3404 33.6358C6.28793 34.4955 5.50094 35.3015 4.71394 35.0866ZM68.1458 38.4179C67.9359 38.4179 67.6736 38.4716 67.4112 38.5791L66.1521 39.4388C65.5749 39.8149 64.8404 40.0299 64.1059 40.0299C61.9023 39.9224 60.2758 37.9881 60.3808 35.8388C60.4857 33.7433 62.0597 32.1313 64.1059 32.0239C64.8404 32.0239 65.5225 32.2388 66.1521 32.6149L67.3588 33.4746C67.5686 33.5821 67.7785 33.6358 68.0933 33.6358C68.9328 33.6358 69.6148 32.9373 69.6148 32.0776C69.6148 31.7552 69.5099 31.3254 69.2476 31.0567C68.0408 29.606 66.257 28.7463 64.3157 28.7463C60.3808 28.7463 57.1803 32.0239 57.1803 36.0537C57.1803 39.9224 60.1184 43.1463 63.896 43.3612C65.9422 43.3612 67.831 42.5015 69.2476 40.997C69.4574 40.7284 69.6148 40.406 69.5624 39.9761C69.7198 39.1164 68.9852 38.4179 68.1458 38.4179ZM97.3171 28.3164C96.3727 28.3164 95.6906 29.1224 95.6906 29.9821V41.7493C95.6906 42.7164 96.4776 43.4149 97.3171 43.4149C98.2615 43.4149 98.9435 42.609 98.9435 41.7493V29.9821C98.9435 29.0687 98.2615 28.3164 97.3171 28.3164ZM73.4449 29.1224C73.1301 28.8 72.6579 28.5851 72.1857 28.5851C71.2413 28.5851 70.5592 29.0149 70.5592 29.9821V41.7493C70.5592 42.6627 71.2938 43.3075 72.1332 43.3075C72.9727 43.3075 73.7072 42.609 73.7597 41.7493V40.4597H77.6946L79.3211 42.7164C79.5834 43.0925 80.1081 43.3075 80.5803 43.3075C81.4722 43.3075 82.1018 42.5552 82.1018 41.7493C82.1018 41.4269 81.9969 41.0507 81.787 40.7821L73.4449 29.1224ZM75.3337 37.0746C75.3337 37.1284 75.2812 37.1821 75.2287 37.1821H73.7597V34.7642L75.3337 37.0209C75.3861 37.0209 75.3861 37.0209 75.3337 37.0746ZM110.171 28.3702C109.384 28.4239 108.755 29.0687 108.755 29.8209V36.6448C108.755 36.6985 108.702 36.7522 108.65 36.7522C108.597 36.7522 108.597 36.7522 108.545 36.6985L104.715 29.6597C104.138 28.5851 102.774 28.2627 101.777 28.9075C101.2 29.2836 100.78 29.9821 100.727 30.6806V41.8567C100.727 42.7702 101.462 43.4687 102.301 43.4687C103.141 43.4687 103.875 42.7164 103.875 41.8567V35.0328C103.875 34.9791 103.928 34.9254 103.98 34.9254C104.033 34.9254 104.033 34.9254 104.033 34.9791L108.02 42.1791C108.545 43.2 109.804 43.5224 110.801 42.9851C111.483 42.609 111.85 41.9104 111.85 41.2119V29.8746C111.745 29.0149 111.011 28.3164 110.171 28.3702ZM115.838 29.7134C115.838 29.6597 115.838 29.6597 115.838 29.606C115.838 29.1761 115.523 29.0687 115.156 29.0687H114.683C114.526 29.0687 114.474 29.1761 114.474 29.2299V30.6806C114.474 30.8418 114.526 30.8955 114.683 30.8955C114.841 30.8955 114.893 30.7881 114.893 30.6806V30.1433H114.998L115.261 30.6806C115.313 30.7881 115.366 30.8955 115.523 30.8955C115.68 30.8955 115.733 30.8418 115.733 30.7343C115.733 30.6806 115.733 30.6806 115.733 30.6269L115.418 30.1433C115.628 30.197 115.838 29.9284 115.838 29.7134ZM115.208 29.8209H114.893V29.391H115.208C115.366 29.391 115.47 29.4448 115.47 29.606C115.47 29.7672 115.366 29.8209 115.208 29.8209ZM115.156 28.2627C114.211 28.2627 113.477 29.0687 113.477 29.9821C113.477 30.8955 114.264 31.7015 115.156 31.7015C116.048 31.7015 116.835 30.8955 116.835 29.9821C116.782 29.0687 116.048 28.2627 115.156 28.2627ZM115.156 31.2716C114.421 31.2716 113.896 30.7343 113.896 29.9821C113.896 29.2299 114.421 28.6925 115.156 28.6925C115.89 28.6925 116.415 29.2299 116.415 29.9821C116.415 30.6806 115.838 31.2716 115.156 31.2716Z" fill="white"/>
<path d="M69.6675 20.8478C66.3096 18.3224 61.2729 16.8179 56.0787 16.8179C50.8845 16.8179 45.7953 18.3224 42.4899 20.8478C42.1751 21.0627 42.0177 21.4388 42.0177 21.8687C42.0177 22.6209 42.5424 23.1582 43.2769 23.1582C43.5392 23.1582 43.8016 23.0507 44.0639 22.8896C46.3199 21.1701 50.6747 19.3433 56.1836 19.3433C61.6926 19.3433 65.9948 21.1701 68.2509 22.8896L68.3034 22.9433C68.828 23.3194 69.6675 23.2119 70.0347 22.6209C70.3495 22.0299 70.2446 21.2239 69.6675 20.8478ZM56.0787 19.8806C51.2518 19.8806 46.6872 21.3313 43.854 23.7493C43.854 23.7493 43.854 23.7493 43.8016 23.7493C43.4868 24.0716 43.4343 24.609 43.6966 24.9851C43.854 25.2 44.0639 25.3075 44.3787 25.3075C44.5886 25.3075 44.746 25.2537 44.9034 25.0925C47.4217 22.9433 51.619 21.6 56.0262 21.6C60.4334 21.6 64.5782 22.8896 67.1491 25.0925C67.5164 25.4149 68.0935 25.3612 68.3558 24.9851C68.6706 24.609 68.6182 24.0179 68.2509 23.7493C65.4177 21.3851 60.8531 19.8806 56.0787 19.8806ZM40.4437 10.5851C40.811 9.02687 39.919 7.46866 38.3451 6.98508C38.1352 6.93134 37.8729 6.87761 37.6105 6.87761C36.0365 6.87761 34.7773 8.16717 34.7773 9.77911C34.7773 11.391 36.0365 12.6806 37.6105 12.6806C39.0271 12.7881 40.1289 11.8746 40.4437 10.5851ZM56.0787 15.0985C57.6527 15.0985 58.9119 13.809 58.9119 12.197C58.9119 10.5851 57.6527 9.29552 56.0787 9.29552C54.5047 9.29552 53.2455 10.5851 53.2455 12.197C53.2455 13.809 54.4522 15.0985 56.0787 15.0985ZM56.0787 7.68358C57.6527 7.68358 58.9119 6.39403 58.9119 4.78209C58.9119 3.17015 57.6527 1.82687 56.0787 1.82687C54.5047 1.82687 53.2455 3.11642 53.2455 4.72836C53.193 6.39403 54.4522 7.68358 56.0787 7.68358ZM47.6841 10.3164C46.1625 10.7463 45.2706 12.4119 45.6903 13.9702C46.0051 15.206 47.1594 16.0657 48.4186 16.1194H48.4711C48.6809 16.1194 48.9433 16.0657 49.2056 16.0119C50.7271 15.5821 51.619 13.9702 51.2518 12.4119C50.937 11.1224 49.7827 10.209 48.4711 10.209C48.1563 10.209 47.9464 10.2627 47.6841 10.3164ZM44.1164 16.9254C44.4836 15.3672 43.5917 13.7015 42.0177 13.3254C41.8078 13.2716 41.5455 13.2179 41.2832 13.2179C40.811 13.2179 40.2863 13.3791 39.8141 13.594C39.1321 13.9701 38.6599 14.6687 38.5025 15.3672C38.2926 16.1731 38.3975 16.9254 38.8173 17.6239C39.2895 18.5373 40.2338 19.0209 41.2832 19.0746C41.7554 19.0746 42.3325 18.9672 42.7522 18.6985C43.4343 18.3224 43.959 17.6776 44.1164 16.9254ZM62.9518 15.9582C63.2141 16.0119 63.424 16.0657 63.7388 16.0657C65.3128 16.0657 66.572 14.7224 66.572 13.1642C66.572 11.8209 65.68 10.6925 64.4733 10.3701C64.211 10.3164 64.0011 10.2627 63.6863 10.2627C62.1123 10.2627 60.8531 11.606 60.8531 13.2179C60.8007 14.4537 61.6926 15.6358 62.9518 15.9582ZM64.8406 8.86567C65.0504 8.9194 65.3128 8.97314 65.6276 8.97314C67.2016 8.97314 68.4608 7.62985 68.4608 6.07164C68.4608 4.72836 67.5688 3.6 66.3621 3.27761C66.0998 3.22388 65.8899 3.17015 65.5751 3.17015C64.0011 3.17015 62.7419 4.51343 62.7419 6.12537C62.7419 7.30746 63.6338 8.48955 64.8406 8.86567ZM72.2908 13.6478C71.8711 13.3791 71.3464 13.2716 70.8742 13.2716C69.3002 13.2716 68.041 14.5612 68.041 16.1731C68.041 16.3881 68.0935 16.6567 68.146 16.9254C68.3034 17.6776 68.828 18.3224 69.4576 18.6985C70.8217 19.5582 72.6056 19.0209 73.3926 17.6239C73.7599 16.9254 73.8648 16.1731 73.7074 15.3672C73.3926 14.7224 72.9204 14.0776 72.2908 13.6478ZM77.2751 9.13433C77.1177 8.38209 76.593 7.73731 75.9634 7.36119C74.5993 6.50149 72.8155 7.03881 72.0285 8.43582C71.6612 9.13433 71.5563 9.88657 71.7137 10.6925C71.8711 11.4448 72.3957 12.0896 73.0253 12.4657C74.3895 13.3254 76.1733 12.8418 76.9603 11.4448C77.38 10.6925 77.485 9.77911 77.2751 9.13433ZM46.5823 8.97314C46.8446 8.97314 47.1069 8.9194 47.3693 8.86567C48.8908 8.43582 49.7827 6.77015 49.4155 5.26567C49.1007 3.97612 47.9464 3.11642 46.6872 3.11642C46.4249 3.11642 46.215 3.17015 45.9002 3.22388C44.3787 3.65373 43.4868 5.3194 43.854 6.82388C44.1688 8.0597 45.2706 8.97314 46.5823 8.97314Z" fill="white"/>
</g>
<defs>
<clipPath id="clip0_167_196">
<rect width="117" height="45" fill="white" transform="translate(0.0444336)"/>
</clipPath>
</defs>
</svg>
